<svg xmlns="http://www.w3.org/2000/svg" xmlns:xlink="http://www.w3.org/1999/xlink" width="24" height="24" viewBox="0 0 24 24" fill="none">
<path d="M12 23C18.0698 23 23 18.0698 23 12C23 5.9302 18.0698 1 12 1C5.9302 1 1 5.9302 1 12C1 18.0698 5.9302 23 12 23Z" stroke="rgba(120, 123, 134, 1)" stroke-width="2"   >
</path>
<path d="M5.94836 17.1979C5.80857 17.448 5.85762 17.7483 6.05871 17.9481C6.05871 17.9481 6.14823 18.0278 6.1985 18.0585C6.39837 18.1577 6.61786 18.1479 6.7883 18.0585L6.80792 18.0585L13.9579 14.2177C14.0682 14.1588 14.1578 14.0681 14.2178 13.9578L18.0485 6.82792C18.0485 6.82792 18.0583 6.7985 18.0681 6.77765C18.1478 6.59867 18.1576 6.38782 18.0583 6.1978C17.8879 5.89868 17.5077 5.77854 17.1987 5.94772L10.0475 9.78848C9.93841 9.84855 9.84767 9.93804 9.78759 10.0484L5.94836 17.1979Z" stroke="rgba(120, 123, 134, 1)" stroke-width="2"   >
</path>
</svg>
