<svg xmlns="http://www.w3.org/2000/svg" xmlns:xlink="http://www.w3.org/1999/xlink" width="92.0064697265625" height="59.97210693359375" viewBox="0 0 92.0064697265625 59.97210693359375" fill="none">
<path d="M59.0946 37.1226C60.324 32.1448 60.366 26.7113 58.5788 21.0439C55.0943 9.96104 45.3185 1.65486 33.7975 0.233511C14.0541 -2.18938 -2.50472 14.5909 0.314062 34.3938C1.97534 46.0405 10.6656 55.774 22.0067 58.8806C27.1584 60.2899 32.1063 60.2599 36.6643 59.2044C37.7138 58.9645 37.8938 57.5852 36.9882 57.0034C34.1574 55.2342 32.1662 52.8353 30.9248 50.9822C30.6189 50.9942 30.3071 51.0302 29.9952 51.0302C18.2883 51.0302 8.78839 41.4226 8.95631 29.674C9.11824 18.5131 18.5162 9.11543 29.6773 8.9535C41.4262 8.78558 51.0281 18.2852 51.0281 29.9918C51.0281 31.0533 50.9261 32.0849 50.7762 33.1044C52.9892 35.7852 55.4062 37.2005 57.5173 37.9442C58.189 38.1721 58.9266 37.8122 59.0946 37.1226Z"   fill="#FFFFFF" >
</path>
<path d="M32.9184 22.855C31.6891 27.82 31.6471 33.2648 33.4281 38.9314C36.9182 50.0128 46.6988 58.3238 58.2185 59.733C77.9596 62.1616 94.5165 45.3836 91.6861 25.5834C90.037 13.9323 81.3478 4.20011 70.008 1.09396C64.8568 -0.315201 59.9156 -0.285219 55.3461 0.770152C54.2966 1.01001 54.1047 2.38919 55.0282 2.97084C57.8587 4.75178 59.8496 7.14435 61.0849 8.99125C61.3967 8.97926 61.7086 8.94328 62.0264 8.94328C73.726 8.94328 83.2367 18.5496 83.0568 30.3026C82.8949 41.4619 73.4981 50.8643 62.3382 51.0202C50.5847 51.2001 40.978 41.6898 40.978 29.9907C40.978 28.9234 41.0859 27.892 41.2358 26.8726C39.029 24.1922 36.6064 22.771 34.4955 22.0335C33.8299 21.7996 33.0863 22.1714 32.9184 22.855Z"   fill="#FFFFFF" >
</path>
</svg>
